<?xml version="1.0" encoding="UTF-8" standalone="no"?>
<svg xmlns:dc="http://purl.org/dc/elements/1.1/" xmlns:cc="http://creativecommons.org/ns#" xmlns:rdf="http://www.w3.org/1999/02/22-rdf-syntax-ns#" xmlns:svg="http://www.w3.org/2000/svg" xmlns="http://www.w3.org/2000/svg" xmlns:sodipodi="http://sodipodi.sourceforge.net/DTD/sodipodi-0.dtd" xmlns:inkscape="http://www.inkscape.org/namespaces/inkscape" version="1.1" id="svg2" xml:space="preserve"
 width="256" height="256" viewBox="20 50 300 300" sodipodi:docname="among-us-seeklogo.com.ai">
	<defs id="defs6">
		<clipPath clipPathUnits="userSpaceOnUse" id="clipPath18">
			<path d="M 0,841.89 H 595.28 V 0 H 0 Z" id="path16"/>
		</clipPath>
	</defs>
	<g id="g10" transform="matrix(1.3333333,0,0,-1.3333333,0,1122.52)">
		<g id="g12">
			<g id="g14" clip-path="url(#clipPath18)">
				<g id="g20" transform="translate(42.5088,659.3765)">
					<path d="m 0,0 v 25 c 0.783,8.753 1.114,17.536 0.954,26.309 -0.239,12.994 5.029,20.045 17.45,21.981 1.149,0.178 2.263,0.684 3.419,0.721 7.378,0.237 7.478,-0.027 8.654,8.541 1.338,9.759 4.399,19.069 9.653,27.125 5.546,8.503 13.56,14.763 24.575,14.752 10.484,-0.011 21.17,1.514 31.414,-0.646 16.295,-3.435 29.765,-11.479 36.383,-27.939 0.701,-1.744 1.562,-3.328 3.062,-4.471 C 142.664,85.962 146.689,78.773 148,70 V 58 c -0.858,-4.581 -2.447,-8.749 -5.275,-12.617 -2.498,-3.417 -1.818,-7.848 -0.942,-11.614 3.488,-15.008 0.811,-29.707 -1.498,-44.465 -1.357,-8.675 -2.974,-17.308 -4.029,-26.031 -0.684,-5.654 -2.01,-11.111 -5.313,-15.902 -2.91,-4.937 -7.354,-6.902 -12.941,-6.801 -3.481,0.065 -6.966,0.002 -10.449,0.004 -10.08,0.008 -12.639,1.719 -16.504,10.994 -1.738,4.153 -2.509,8.489 -2.488,12.995 0.009,2.076 -0.398,4.302 -3.051,4.173 -2.684,-0.13 -2.008,-2.599 -2.074,-4.244 -0.184,-4.593 0.289,-9.226 -1.023,-13.74 -1.854,-10.227 -10.005,-17.725 -20.571,-18.991 -8.709,-1.044 -16.915,0.926 -24.625,4.679 -4.099,1.996 -6.017,6.017 -6.546,10.572 -0.104,6.133 -1.219,12.189 -1.382,18.324 -0.093,3.51 -1.786,5.72 -5.631,5.229 C 11.436,-30.992 2.472,-21.409 0.995,-8.772 0.654,-5.85 0.983,-2.846 0,0" style="fill:#010000;fill-opacity:1;fill-rule:nonzero;stroke:none" id="path22"/>
				</g>
				<g id="g24" transform="translate(134.6748,611.4214)">
					<path d="m 0,0 c 2.694,-7.33 7.383,-11.344 15.729,-10.143 3.408,0.49 6.946,0.18 10.419,0.076 5.024,-0.15 9.018,1.506 11.528,6.065 6.721,-1.17 13.915,-1.275 18.158,-8.043 v -3 c -1.268,-3.25 -4.029,-4.588 -7.07,-5.674 -10.075,-3.595 -20.585,-4.292 -31.131,-4.832 -1.934,-0.098 -3.945,0.563 -5.799,-0.494 h -47 c -6.532,1.068 -13.191,0.561 -19.724,1.577 -6.568,1.023 -13.153,2.054 -19.249,4.904 -2.602,1.214 -5.111,2.675 -5.07,6.111 0.041,3.443 2.525,5.019 5.248,5.904 4.446,1.445 8.645,4.558 13.75,2.581 0.826,-6.375 4.777,-9.393 10.672,-11.469 11.987,-4.217 22.895,-3.957 33.383,4.177 4.08,3.162 4.093,7.24 5.052,11.319 C -7.557,1.207 -3.766,0.451 0,0" style="fill:#373b3c;fill-opacity:1;fill-rule:evenodd;stroke:none" id="path26"/>
				</g>
				<g id="g28" transform="translate(91.3335,761.4453)">
					<path d="m 0,0 c 5.913,7.413 12.673,12.952 23.1,11.511 3.929,-0.543 7.965,-0.484 11.948,-0.427 11.248,0.162 20.785,-3.671 28.514,-11.874 0.857,-0.91 2.557,-1.669 1.919,-3.143 -0.581,-1.345 -2.302,-1.142 -3.603,-1.129 -8.804,0.089 -17.627,0.768 -26.367,-0.958 -3.744,-0.739 -7.597,-1.122 -11.216,-2.26 -6.054,-1.905 -10.202,-6.408 -10.798,-12.531 -1.129,-11.59 -1.233,-23.149 5.137,-33.86 2.766,-4.653 6.738,-7.167 11.164,-9.379 10.612,-5.304 21.645,-3.966 32.657,-1.644 4.702,0.991 9.476,1.936 13.955,3.607 4.691,1.751 5.117,-0.392 4.746,-4.027 -0.354,-6.933 -0.873,-13.787 -2.655,-20.599 -3.71,-14.192 -9.765,-18.887 -24.097,-21.127 -12.328,-1.926 -23.903,1.091 -35.579,3.205 -6.709,1.214 -10.272,7.734 -12.836,13.646 -4.785,11.035 -7.095,22.697 -8.644,34.704 -1.31,10.155 -1.068,20.249 -1.744,30.352 C -5.01,-16.814 -1.53,-8.624 0,0" style="fill:#0154c0;fill-opacity:1;fill-rule:evenodd;stroke:none" id="path30"/>
				</g>
				<g id="g32" transform="translate(91.3335,761.4453)">
					<path d="m 0,0 c 0.411,-4.712 -0.519,-9.241 -2.084,-13.633 -0.52,-1.459 -0.677,-2.885 -0.749,-4.381 -0.724,-15.139 -10e-4,-30.269 2.313,-45.184 1.56,-10.051 3.588,-20.396 8.738,-29.294 3.546,-6.126 7.837,-12.11 17.058,-11.867 6.966,0.185 13.81,-3.751 21.075,-2.642 5.69,0.868 11.518,0.32 17.111,2.454 6.095,2.325 9.776,6.52 11.824,12.471 2.544,7.391 4.047,15.005 4.879,22.762 0.122,1.142 -0.089,2.365 0.991,3.2 2.736,-21.717 0.53,-43.002 -5.467,-63.978 -1.164,-4.073 -0.27,-8.282 -0.363,-12.426 -0.159,-6.984 -1.13,-8.074 -7.889,-8.728 -1.98,-0.19 -3.951,-0.574 -5.935,-0.633 -7.669,-0.229 -10.584,2.448 -10.278,10.219 0.213,5.429 0.24,11.149 7.489,13.06 3.024,0.797 5.541,3.323 8.737,6.642 -6.124,-0.802 -11.019,-1.125 -15.937,-1.122 -5.846,0.005 -11.588,0.614 -17.303,1.747 -2.299,0.456 -4.658,0.62 -6.941,0.038 -2.395,-0.613 -3.959,-1.857 -4.29,-4.745 -0.703,-6.121 -1.095,-12.22 -0.903,-18.381 0.269,-8.619 -4.857,-13.978 -13.628,-14.526 -4.625,-0.289 -8.839,1.116 -12.989,2.947 -1.642,0.724 -1.955,1.928 -2.163,3.537 -4.185,32.4 -4.398,64.949 -4.033,97.544 0.159,14.149 1.897,28.024 5.439,41.657 C -4.11,-8.691 -1.798,-4.413 0,0" style="fill:#0b1b76;fill-opacity:1;fill-rule:evenodd;stroke:none" id="path34"/>
				</g>
				<g id="g36" transform="translate(70.3896,709.4678)">
					<path d="m 0,0 c 0.062,-16.971 0.079,-33.943 0.225,-50.913 0.03,-3.472 0.635,-6.936 0.813,-10.413 0.338,-6.574 -3.238,-8.863 -9.407,-5.974 -4.778,2.238 -7.019,5.504 -7.904,11.347 -2.726,18.004 -0.365,35.786 0.552,53.65 0.023,0.441 0.448,0.861 0.684,1.291 2.494,-0.15 4.769,0.767 7.115,1.395 C -5.267,1.095 -2.552,1.902 0,0" style="fill:#0b1b76;fill-opacity:1;fill-rule:evenodd;stroke:none" id="path38"/>
				</g>
				<g id="g40" transform="translate(180.5752,728.4258)">
					<path d="m 0,0 c 1.703,-6.417 -1.274,-13.284 -8.365,-16.726 -12.166,-5.905 -24.965,-9.2 -38.607,-6.071 -6.745,1.547 -12.091,5.687 -16.447,10.773 -5.454,6.364 -3.736,21.757 2.527,26.789 2.21,-1.123 2.523,-3.355 3.131,-5.4 3.636,-12.224 8.779,-16.105 21.603,-16.035 8.458,0.046 16.832,1.199 25.215,2.193 C -6.857,-3.992 -3.66,-1.457 0,0" style="fill:#4a646e;fill-opacity:1;fill-rule:evenodd;stroke:none" id="path42"/>
				</g>
				<g id="g44" transform="translate(180.5752,728.4258)">
					<path d="m 0,0 c -2.456,-4.527 -7.091,-5.523 -11.4,-6.035 -9.044,-1.073 -18.126,-2.029 -27.28,-1.926 -10.699,0.121 -16.957,4.793 -19.877,15.121 -0.72,2.551 -1.552,5.071 -2.335,7.605 10.027,2.064 19.966,5.047 30.337,4.276 7.614,-0.567 15.033,-2.412 21.581,-6.541 C -4.383,9.605 -0.895,5.669 0,0" style="fill:#98c7dc;fill-opacity:1;fill-rule:evenodd;stroke:none" id="path46"/>
				</g>
				<g id="g48" transform="translate(70.3896,709.4678)">
					<path d="m 0,0 c -3.861,0.069 -7.573,-0.584 -11.199,-1.976 -1.299,-0.499 -3.229,-1.947 -3.837,0.965 0.224,1.633 0.383,3.279 0.684,4.897 1.339,7.183 6.745,10.308 13.681,8.092 C 1.163,11.393 0.929,10.15 0.823,8.859 0.58,5.904 0.278,2.953 0,0" style="fill:#0154c0;fill-opacity:1;fill-rule:evenodd;stroke:none" id="path50"/>
				</g>
				<g id="g52" transform="translate(160.2031,731.3799)">
					<path d="m 0,0 c -4.933,0.545 -11.313,1.335 -17.714,1.921 -3.355,0.308 -4.049,2.487 -4.055,5.171 -0.004,3.119 1.988,4.961 4.771,5.409 7.691,1.237 15.081,-0.766 22.427,-2.704 1.592,-0.42 3.049,-1.349 4.084,-2.735 1,-1.338 2.15,-2.742 1.367,-4.519 C 10.074,0.72 8.574,-0.17 6.468,-0.023 4.812,0.093 3.142,0 0,0" style="fill:#fbfdfc;fill-opacity:1;fill-rule:evenodd;stroke:none" id="path54"/>
				</g>
			</g>
		</g>
	</g>
</svg>
